<svg version="1" xmlns="http://www.w3.org/2000/svg" width="346.667" height="346.667" viewBox="0 0 260.000000 260.000000"><path d="M74.8 51.6c-8.6 8.8-11.2 14-10.3 20.4.4 2.5 1.6 5.5 2.7 6.7 1.7 1.8 1.8 2.3.6 2.3-.8 0-15.5 14-32.6 31.2L4.1 143.3l2.5 2.4C8 147 9.4 148 9.7 148c1.5 0 8.3 3.5 8.3 4.2 0 .4.8.8 1.8.8s2.9 1.1 4.2 2.5c1.3 1.4 3 2.5 3.7 2.5.7 0 3.3 1.8 5.7 4 2.4 2.2 5.1 4 6 4 .9 0 1.6.8 1.6 1.7 0 2-6 14.7-7.2 15.1-.4.2-.8 1.2-.8 2.2 0 .9-.7 2.3-1.5 3-.8.7-1.5 2-1.6 2.9 0 .9-1.5 4.3-3.3 7.6l-3.2 6 4.3 5.8c2.4 3.1 4.8 5.7 5.3 5.7 2.2 0 4-1.4 4-3 0-1 .7-2.3 1.5-3 .8-.7 1.5-2 1.5-3s.7-2.3 1.5-3c.8-.7 1.2-1.7.9-2.2-.3-.5.1-1.7.9-2.6.7-.9 2.8-4.6 4.6-8.2l4-8c1-1.7 2.7-5.8 3.4-8.1.6-1.9 5.2-1.5 7.7.7.9.7 2.6 1.1 3.8.7 1.5-.3 2.4 0 2.8 1.1.5 1.2 2 1.6 6.3 1.7 6.7.1 13.4 3.3 13.9 6.6.2 1.2 1 2.7 1.8 3.3.8.7 1.4 2.1 1.4 3.1 0 1.1.5 1.9 1 1.9.6 0 1 1.1 1 2.4 0 1.3.7 2.6 1.5 3 .8.3 1.5 1.4 1.5 2.5s.4 2.3 1 2.6c.5.3 1.7 2.3 2.6 4.3 3 6.9 2.7 6.7 9.5 6.7 3.5 0 7-.1 7.7-.3 1.4-.5 1.7-6.2.2-6.2-.5 0-1-1.1-1-2.4 0-1.3-.7-2.6-1.5-3-.8-.3-1.5-1.2-1.5-2.1 0-.8-1.1-3.3-2.5-5.5s-2.5-4.6-2.5-5.4c0-.7-.7-1.9-1.5-2.6-.8-.7-1.5-2-1.5-2.9 0-.9-.6-2.3-1.2-3-1.1-1 1.1-1.2 11.1-1 8.9.2 12.6-.1 12.9-.9.2-.7 2.4-1.2 5.2-1.2 2.7 0 5.1-.4 5.5-.9.3-.5 3.4-2.4 7-4.1 4.6-2.3 6.5-3.7 6.5-5.1 0-1.6-.7-1.9-4.9-1.9-3.1 0-5.3-.5-6.1-1.5-.8-.9-2.9-1.5-5.5-1.5-2.5 0-4.5-.5-4.7-1.2-.3-.7-1.8-1.1-3.6-1-2.2.2-3.4-.3-3.8-1.3-.4-.8-1.4-1.5-2.4-1.5s-2.3-.7-3-1.5c-.7-.8-2.1-1.5-3.1-1.5-1.1 0-1.9-.9-2.1-2.3-.2-1.4-1.1-2.3-2.5-2.5-1.4-.2-2.3-1-2.3-2.1 0-1-.6-2.4-1.4-3.1-.8-.6-1.3-1.7-1-2.4.3-.8-.2-1.6-1-1.9-.9-.4-1.6-1.5-1.6-2.5 0-1.1-.7-2.5-1.5-3.2-1-.8-1.5-3.1-1.5-6.6v-5.3l6.1 5.7 6 5.7-2.8.5c-3.1.6-4.2 3.3-2.2 5.6.7.9 2.1 1.3 3 1.1 1-.3 2.6.1 3.6.9 1 .7 2.5 1.4 3.4 1.4.9 0 2.2.7 2.9 1.5 1.7 2.1 7 1.9 8.6-.3 1.2-1.5 1.3-1.1 1.4 3.4 0 3.6.5 5.6 1.8 6.7 3.6 3.2 4.8 2 4.7-4.6 0-4.3.8-4.7 3.1-1.2l1.6 2.5h47.3c42.1 0 47.6-.2 50.6-1.7 1.9-.9 3.6-1.9 3.9-2.2 1-1.2 7.2-4.1 8.6-4.1.8 0 1.4-.5 1.4-1v-1.8c0-.4-26.2-.9-58.2-1.2l-58.3-.5 58.1-.3c51.3-.2 58.3-.4 58.8-1.7.3-1-.1-1.8-1.2-2.1-.9-.3-2.4-1-3.2-1.5-.8-.5-2.2-1.2-3-1.5-4.9-2-8-3.6-8.5-4.4-.4-.6-18.5-1-48.4-1h-47.9l-1.6 2.5c-2.5 3.9-3.6 3-3.2-2.7.6-8-.6-9.6-4.4-5.6-1.4 1.5-2 3.5-2 6.4 0 2.4-.5 4.6-1.1 5-.7.4-6.2-4.4-13.5-11.7L105 109.5v-7.8c0-5.8.4-8.3 1.6-9.4.8-.9 1.3-2.2 1-3-.3-.8-.6-10-.6-20.4 0-17.8-.1-18.9-1.9-18.9-1 0-2.4-.7-3.1-1.5-.7-.8-2-1.5-3-1.5s-2-.7-2.3-1.5c-.5-1.1-2.3-1.4-7.7-1.3l-7.1.1-7.1 7.3z"/><path d="M155.9 167.6c-1.6 1.9-.2 3.4 3.2 3.4 2.2 0 2.9-.5 2.9-1.9 0-2.3-4.5-3.4-6.1-1.5zM164.2 167.2c-1.8 1.8-1.4 3.8.8 3.8 1.3 0 2-.7 2-1.9 0-2.5-1.3-3.4-2.8-1.9z"/></svg>